<svg width="34" height="34" viewBox="0 0 34 34" fill="none" xmlns="http://www.w3.org/2000/svg">
<path d="M24.7923 9.20825H24.8065M9.91732 2.83325H24.084C27.996 2.83325 31.1673 6.00457 31.1673 9.91659V24.0833C31.1673 27.9953 27.996 31.1666 24.084 31.1666H9.91732C6.0053 31.1666 2.83398 27.9953 2.83398 24.0833V9.91659C2.83398 6.00457 6.0053 2.83325 9.91732 2.83325ZM22.6673 16.1074C22.8422 17.2864 22.6408 18.4906 22.0918 19.5485C21.5429 20.6065 20.6743 21.4644 19.6096 22.0003C18.545 22.5362 17.3385 22.7227 16.1617 22.5333C14.9849 22.344 13.8978 21.7884 13.055 20.9456C12.2122 20.1028 11.6566 19.0157 11.4672 17.8389C11.2779 16.6621 11.4644 15.4556 12.0003 14.3909C12.5362 13.3263 13.3941 12.4577 14.452 11.9088C15.51 11.3598 16.7141 11.1584 17.8932 11.3333C19.0958 11.5116 20.2092 12.072 21.0689 12.9317C21.9286 13.7914 22.489 14.9048 22.6673 16.1074Z" stroke="white" stroke-width="2" stroke-linecap="round" stroke-linejoin="round"/>
</svg>
