<svg width="34" height="34" viewBox="0 0 34 34" fill="none" xmlns="http://www.w3.org/2000/svg">
<path d="M22.6673 11.3333C24.9217 11.3333 27.0837 12.2288 28.6777 13.8228C30.2718 15.4169 31.1673 17.5789 31.1673 19.8333V29.7499H25.5007V19.8333C25.5007 19.0818 25.2021 18.3611 24.6708 17.8298C24.1394 17.2984 23.4188 16.9999 22.6673 16.9999C21.9159 16.9999 21.1952 17.2984 20.6639 17.8298C20.1325 18.3611 19.834 19.0818 19.834 19.8333V29.7499H14.1673V19.8333C14.1673 17.5789 15.0629 15.4169 16.6569 13.8228C18.251 12.2288 20.413 11.3333 22.6673 11.3333Z" stroke="white" stroke-width="2" stroke-linecap="round" stroke-linejoin="round"/>
<path d="M8.50065 12.7499H2.83398V29.7499H8.50065V12.7499Z" stroke="white" stroke-width="2" stroke-linecap="round" stroke-linejoin="round"/>
<path d="M5.66732 8.49992C7.23212 8.49992 8.50065 7.23139 8.50065 5.66659C8.50065 4.10178 7.23212 2.83325 5.66732 2.83325C4.10251 2.83325 2.83398 4.10178 2.83398 5.66659C2.83398 7.23139 4.10251 8.49992 5.66732 8.49992Z" stroke="white" stroke-width="2" stroke-linecap="round" stroke-linejoin="round"/>
</svg>
