<svg width="34" height="34" viewBox="0 0 34 34" fill="none" xmlns="http://www.w3.org/2000/svg">
<path d="M3.54107 24.0833C2.55142 19.413 2.55142 14.587 3.54107 9.91667C3.6711 9.44238 3.92234 9.01011 4.27009 8.66236C4.61784 8.31461 5.05011 8.06337 5.5244 7.93333C13.1226 6.67457 20.8762 6.67457 28.4744 7.93333C28.9487 8.06337 29.381 8.31461 29.7287 8.66236C30.0765 9.01011 30.3277 9.44238 30.4577 9.91667C31.4474 14.587 31.4474 19.413 30.4577 24.0833C30.3277 24.5576 30.0765 24.9899 29.7287 25.3376C29.381 25.6854 28.9487 25.9366 28.4744 26.0667C20.8762 27.3257 13.1226 27.3257 5.5244 26.0667C5.05011 25.9366 4.61784 25.6854 4.27009 25.3376C3.92234 24.9899 3.6711 24.5576 3.54107 24.0833Z" stroke="white" stroke-width="2" stroke-linecap="round" stroke-linejoin="round"/>
<path d="M14.1661 21.25L21.2494 17L14.1661 12.75V21.25Z" stroke="white" stroke-width="2" stroke-linecap="round" stroke-linejoin="round"/>
</svg>
